# xmcd
#
# Track frame offsets:
#	150
#	13824
#	27425
#	40503
#	54954
#	69216
#	83695
#	98365
#	112844
#	127162
#	141877
#	156010
#	169128
#	183786
#	198650
#	213504
#	227190
#	241981
#	256611
#
# Disc length: 3610 seconds
#
# Revision: 0
# Processed by: cddbd v1.5.2PL0 Copyright (c) Steve Scherf et al.
# Submitted via: EasyCDDAExtractor 16.0.8.2
#
DISCID=ef0e1813
DTITLE=Ρούκουνας Κώστας ή Σαμιωτάκης - Αρχ. Ελλ. Δ.-Τραγ. ρεμπ. 14-Ρούκουνας Κ
DTITLE=2
DYEAR=1998
DGENRE=Ρεμπέτικη
TTITLE0=Ρούκουνας Κώστας ή Σαμιωτάκης - Ο κατάδικος [Σωτήρη Γαβαλά, 1935]
TTITLE1=Ρούκουνας Κώστας ή Σαμιωτάκης - Ο γλετζές [Στ. Παντελίδη, 1934]
TTITLE2=Ρούκουνας Κώστας ή Σαμιωτάκης - Γεια σου Λόλα μερακλού [Δημ. Μπαρούση,
TTITLE2=1934]
TTITLE3=Ρούκουνας Κώστας ή Σαμιωτάκης - Ελένη [Κώστα Ρούκουνα, 1934]
TTITLE4=Ρούκουνας Κώστας ή Σαμιωτάκης - Καθρέφτης θέλω νά 'μουνα [Κώστα Ρούκου
TTITLE4=να, 1937]
TTITLE5=Ρούκουνας Κώστας ή Σαμιωτάκης - Βρε μάγισσα κακιά [Παναγιώτη Τούντα, 1
TTITLE5=933]
TTITLE6=Ρούκουνας Κώστας ή Σαμιωτάκης - Πολίτισσα Πριγκιιπιώτισσα [Παν. Τούντα
TTITLE6=, 1931]
TTITLE7=Ρούκουνας Κώστας ή Σαμιωτάκης - Νέβα ραστ μανές [Κώστα Ρούκουνα, 1935]
TTITLE8=Ρούκουνας Κώστας ή Σαμιωτάκης - Στη Δραπετσώνα [Παναγιώτη Τούντα, 1935
TTITLE8=]
TTITLE9=Ρούκουνας Κώστας ή Σαμιωτάκης - Μιά Σαμιώτισσα μ' έμπλεξε [Κώστα Ρούκο
TTITLE9=υνα, 1933]
TTITLE10=Διαμαντίδης Αντώνης ή Νταλγκάς - Γρινιάρα[Κοντόπουλου-Πολιανίτη(Γ.Πετ
TTITLE10=ροπουλέα)1937]
TTITLE11=Ρούκουνας Κώστας ή Σαμιωτάκης - Στην ξενητειά απελπισμένος [Σωτήρη Γα
TTITLE11=βαλά, 1936]
TTITLE12=Ρούκουνας Κώστας ή Σαμιωτάκης - Η κόρη του παπά [Στ. Παντελίδη, 1936]
TTITLE13=Ρούκουνας Κώστας ή Σαμιωτάκης - Το κουβαρντόπαιδο [Λάζαρου Ρούβα, 194
TTITLE13=0]
TTITLE14=Ρούκουνας Κώστας ή Σαμιωτάκης - Μιά μικρή στο Περιστέρι [Κώστα Ρούκου
TTITLE14=να, 1946]
TTITLE15=Ρούκουνας Κώστας ή Σαμιωτάκης - Ψεύτισε πλέον ο ντουνιάς [Κώστα Ρούκο
TTITLE15=υνα, 1946]
TTITLE16=Ρούκουνας Κώστας ή Σαμιωτάκης - Με μιά τσαχπίνα μπλέχτηκα [Κ. Ρούκουν
TTITLE16=α, 1946]
TTITLE17=Ρούκουνας Κώστας ή Σαμιωτάκης - Η ανεμότρατα [Κώστα Ρούκουνα, 1946]
TTITLE18=Ρούκουνας Κώστας ή Σαμιωτάκης - Η μπόμπα [Κώστα Ρούκουνα, 1946]
EXTD=
EXTT0=
EXTT1=
EXTT2=
EXTT3=
EXTT4=
EXTT5=
EXTT6=
EXTT7=
EXTT8=
EXTT9=
EXTT10=
EXTT11=
EXTT12=
EXTT13=
EXTT14=
EXTT15=
EXTT16=
EXTT17=
EXTT18=
PLAYORDER=
